<svg width="120" height="120" viewBox="0 0 120 120" fill="none" xmlns="http://www.w3.org/2000/svg">
  <defs>
    <linearGradient id="g" x1="20" y1="15" x2="100" y2="105" gradientUnits="userSpaceOnUse">
      <stop stop-color="#5A6FF0"></stop>
      <stop offset="1" stop-color="#8A9BFF"></stop>
    </linearGradient>
  </defs>
  <circle cx="60" cy="60" r="52" fill="url(#g)" opacity="0.18"></circle>
  <path d="M36 60c0-16 10-30 24-30s24 14 24 30-10 30-24 30c-8 0-14-4-18-10" stroke="url(#g)" stroke-width="6" stroke-linecap="round"></path>
  <path d="M48 60c0-10 6-18 12-18s12 8 12 18-6 18-12 18c-5 0-8.5-3-11-8" stroke="url(#g)" stroke-width="6" stroke-linecap="round"></path>
  <circle cx="60" cy="34" r="4" fill="#5A6FF0"></circle>
  <circle cx="80" cy="54" r="4" fill="#8A9BFF"></circle>
  <circle cx="42" cy="68" r="4" fill="#5A6FF0"></circle>
</svg>
